<?xml version="1.0" standalone="no"?>
<!DOCTYPE svg PUBLIC "-//W3C//DTD SVG 20010904//EN"
 "http://www.w3.org/TR/2001/REC-SVG-20010904/DTD/svg10.dtd">
<svg version="1.0" xmlns="http://www.w3.org/2000/svg"
 width="390.000000pt" height="390.000000pt" viewBox="0 0 390.000000 390.000000"
 preserveAspectRatio="xMidYMid meet">
<metadata>
Created by potrace 1.11, written by Peter Selinger 2001-2013
</metadata>
<g transform="translate(0.000000,390.000000) scale(0.100000,-0.100000)"
fill="#000000" stroke="none">
<path d="M1700 3834 c-720 -96 -1330 -602 -1554 -1287 -220 -671 -57 -1397
428 -1905 791 -828 2107 -782 2841 98 480 575 571 1400 229 2070 -367 719
-1148 1130 -1944 1024z m503 -68 c407 -122 670 -471 670 -891 0 -153 -26 -263
-93 -401 -125 -257 -337 -429 -615 -498 -38 -10 -135 -21 -215 -26 -214 -12
-349 -52 -496 -145 -196 -124 -341 -326 -401 -553 -31 -119 -35 -304 -9 -419
74 -336 317 -597 648 -698 l83 -26 -65 6 c-158 15 -412 91 -574 172 -209 105
-356 214 -521 384 -336 349 -515 793 -515 1279 0 306 67 581 206 850 87 166
176 291 309 429 210 218 436 365 705 461 230 82 401 111 635 106 138 -3 172
-7 248 -30z m-144 -2526 c84 -43 131 -122 131 -217 -1 -170 -161 -282 -322
-227 -93 31 -157 124 -158 227 0 69 19 120 63 165 76 80 192 101 286 52z"/>
<path d="M1864 3104 c-90 -32 -153 -126 -154 -227 0 -139 101 -241 240 -241
139 0 240 102 240 241 -1 171 -164 284 -326 227z"/>
</g>
</svg>
